<?xml version="1.0" encoding="UTF-8" standalone="no" ?>
<!DOCTYPE svg PUBLIC "-//W3C//DTD SVG 1.1//EN" "http://www.w3.org/Graphics/SVG/1.1/DTD/svg11.dtd">
<svg xmlns="http://www.w3.org/2000/svg" xmlns:xlink="http://www.w3.org/1999/xlink" version="1.1" width="400" height="400" viewBox="0 0 400 400" xml:space="preserve">
<desc>Created with Fabric.js 3.6.2</desc>
<defs>
</defs>
<g transform="matrix(6.44 0 0 6.44 200 200)" id="Fill-67"  >
<path style="stroke: none; stroke-width: 1; stroke-dasharray: none; stroke-linecap: butt; stroke-dashoffset: 0; stroke-linejoin: miter; stroke-miterlimit: 4; fill: rgb(10,11,9); fill-rule: evenodd; opacity: 1;"  transform=" translate(-15.48, -30)" d="M 27.777 38 L 27 38 L 27 19.398 C 29.322 16.821 29.647 13.116 27.905 8.911 C 25.938 4.164 21.777 0 19 0 C 16.223 0 12.062 4.164 10.095 8.911 C 8.352 13.116 8.678 16.821 11 19.398 L 11 38 L 8.356 38 C 7.722 38 7 37.468 7 37 L 7 31 C 7 29.29 5.787 28 4.178 28 C 2.576 28 1.315 29.269 1.268 30.905 L 0.043 37.886 C -0.425 40.456 1.109 43.506 3.473 44.688 L 8.431 47.106 C 10.294 48.037 13 50.407 13 52 L 13 57 C 13 58.738 14.168 60 15.777 60 L 21.777 60 C 23.494 60 25 58.598 25 57 L 25 52 C 25 50.222 26.425 48.246 28.111 47.684 C 29.731 47.144 31 45.384 31 43.676 L 31 41 C 31 39.402 29.494 38 27.777 38 L 27.777 38 Z M 13 20 L 25 20 L 25 22 L 13 22 L 13 20 Z M 13 24 L 25 24 L 25 26 L 13 26 L 13 24 Z M 13 28 L 25 28 L 25 30 L 13 30 L 13 28 Z M 13 32 L 25 32 L 25 34 L 13 34 L 13 32 Z M 11.942 9.676 C 13.787 5.224 17.438 2 19 2 C 20.562 2 24.213 5.224 26.058 9.676 C 26.885 11.676 27.875 15.349 25.554 18 L 12.446 18 C 10.125 15.349 11.115 11.676 11.942 9.676 L 11.942 9.676 Z M 13 36 L 25 36 L 25 38 L 13 38 L 13 36 Z M 29 43.676 C 29 44.53 28.289 45.517 27.479 45.786 C 24.968 46.623 23 49.352 23 52 L 23 57 C 23 57.495 22.383 58 21.777 58 L 15.777 58 C 15.037 58 15 57.167 15 57 L 15 52 C 15 49.095 11.177 46.243 9.316 45.312 L 4.358 42.894 C 2.771 42.101 1.696 39.971 2.012 38.237 L 3.252 31.173 L 3.267 31 C 3.267 30.503 3.579 30 4.178 30 C 4.784 30 5 30.539 5 31 L 5 37 C 5 38.717 6.771 40 8.356 40 L 27.777 40 C 28.383 40 29 40.505 29 41 L 29 43.676 L 29 43.676 Z" stroke-linecap="round" />
</g>
</svg>